<svg xmlns="http://www.w3.org/2000/svg" xmlns:xlink="http://www.w3.org/1999/xlink" version="1.1"
  width="612" height="792" viewBox="0 0 612 792" fill="white" style="background: white">
  <defs>
    <clipPath id="clip_0">
      <path transform="matrix(1,0,0,-1,0,792)" d="M0 792H612V0H0Z" />
    </clipPath>
  </defs>
  <g id="layer_1" data-name="Layer 1" fill="white">
    <g clip-path="url(#clip_0)">
      <path transform="matrix(1,0,0,-1,334.6579,394.6079)"
        d="M0 0-.844-53.33C-.844-53.33-.844-61.246-8.013-61.871L-16.659-62.287-16.448-65.621H45.549L44.706-62.287 31.42-61.454C31.42-61.454 25.305-59.371 24.883-51.038L24.251-2.5C24.251-2.5 6.326 4.791 0 0"
        fill="#753718" />
      <path transform="matrix(1,0,0,-1,359.2086,372.5849)"
        d="M0 0 .287 38.228H33.198C33.198 38.228 42.252 40.959 42.683 24.719V21.988H46.564L48.576 49.582C48.576 49.582 .059 44.47-44.1 48.237L-43.891 44.679H-34.264C-34.264 44.679-25.683 44.26-25.055 32.122V-.597C-25.055-.597-4.245 7.852 0 0"
        fill="#8ebc40" />
      <path transform="matrix(1,0,0,-1,295.0194,341.4423)"
        d="M0 0 .518 68.866H59.805C59.805 68.866 76.115 73.785 76.892 44.53V39.611H83.882L87.507 89.319C87.507 89.319 .107 80.109-79.444 86.896L-79.067 80.487H-61.724C-61.724 80.487-46.267 79.732-45.136 57.865V-1.075C-45.136-1.075-7.647 14.145 0 0"
        fill="#8ebc40" />
      <path transform="matrix(1,0,0,-1,250.6379,378.5858)"
        d="M0 0-1.508-96.517C-1.508-96.517-1.508-110.844-14.327-111.975L-29.785-112.729-29.408-118.761H81.436L79.928-112.729 56.176-111.221C56.176-111.221 45.242-107.451 44.488-92.37L43.357-4.524C43.357-4.524 11.311 8.671 0 0"
        fill="#753718" />
      <path transform="matrix(1,0,0,-1,236.9486,353.442)"
        d="M0 0C0 0 28.711 36.245 72.435 13.204 116.159-9.838 128.012-22.783 150.665-22.524 150.665-22.524 134.08-66.069 84.288-36.763 40.3-10.874 21.862-14.498 6.585-20.453-8.692-26.407-21.599-49.19-24.76-73.267-24.76-73.267-36.509-10.415 23.179-.259 36.94 2.083 56.631 1.294 78.23-9.579 78.23-9.579 51.1 22.006 0 0"
        fill="#759f40" />
      <path transform="matrix(1,0,0,-1,219.8369,505.0137)"
        d="M0 0H18.574V-4.577H5.408V-10.568H16.948V-15.092H5.408V-26.014H0Z" fill="#8ebc40" />
      <path transform="matrix(1,0,0,-1,252.2485,521.66116)"
        d="M0 0C-.323-.2-.648-.362-.977-.486-1.305-.609-1.756-.725-2.329-.83L-3.476-1.043C-4.55-1.231-5.322-1.461-5.791-1.731-6.584-2.191-6.98-2.904-6.98-3.87-6.98-4.73-6.738-5.352-6.254-5.734-5.77-6.118-5.18-6.309-4.486-6.309-3.386-6.309-2.372-5.991-1.445-5.354-.518-4.719-.036-3.559 0-1.873ZM-3.08 2.351C-2.143 2.468-1.472 2.615-1.068 2.792-.344 3.099 .018 3.576 .018 4.224 .018 5.013-.26 5.559-.815 5.858-1.371 6.159-2.186 6.31-3.261 6.31-4.467 6.31-5.321 6.015-5.822 5.426-6.181 4.989-6.419 4.4-6.539 3.658H-11.399C-11.292 5.343-10.819 6.728-9.979 7.812-8.642 9.508-6.346 10.356-3.092 10.356-.974 10.356 .907 9.938 2.552 9.102 4.197 8.265 5.019 6.687 5.019 4.365V-4.471C5.019-5.084 5.031-5.826 5.055-6.698 5.09-7.357 5.19-7.806 5.355-8.041 5.52-8.276 5.767-8.472 6.097-8.624V-9.366H.619C.465-8.978 .359-8.612 .301-8.271 .242-7.929 .194-7.54 .159-7.104-.54-7.858-1.346-8.501-2.258-9.03-3.349-9.655-4.581-9.968-5.956-9.968-7.71-9.968-9.159-9.47-10.302-8.474-11.446-7.479-12.018-6.067-12.018-4.241-12.018-1.873-11.098-.159-9.258 .901-8.249 1.479-6.765 1.891-4.807 2.139Z"
        fill="#8ebc40" />
      <path transform="matrix(1,0,0,-1,272.3691,511.3135)"
        d="M0 0C.064-.006 .209-.015 .433-.026V-5.187C.115-5.151-.168-5.128-.415-5.116-.663-5.104-.863-5.099-1.016-5.099-3.042-5.099-4.403-5.759-5.099-7.078-5.487-7.82-5.682-8.963-5.682-10.507V-19.714H-10.754V-.451H-5.947V-3.809C-5.169-2.524-4.492-1.646-3.915-1.176-2.972-.386-1.747 .009-.238 .009-.145 .009-.065 .006 0 0"
        fill="#8ebc40" />
      <path transform="matrix(1,0,0,-1,299.7886,511.835)"
        d="M0 0C.825-.33 1.573-.907 2.245-1.731 2.787-2.403 3.152-3.229 3.34-4.206 3.458-4.854 3.517-5.803 3.517-7.052L3.482-19.192H-1.679V-6.928C-1.679-6.197-1.796-5.597-2.032-5.125-2.48-4.229-3.305-3.782-4.506-3.782-5.896-3.782-6.857-4.359-7.387-5.514-7.658-6.127-7.793-6.863-7.793-7.723V-19.192H-12.866V-7.723C-12.866-6.58-12.983-5.75-13.219-5.231-13.643-4.301-14.474-3.835-15.711-3.835-17.148-3.835-18.114-4.301-18.609-5.231-18.88-5.762-19.016-6.551-19.016-7.6V-19.192H-24.123V.035H-19.228V-2.774C-18.604-1.773-18.015-1.061-17.46-.636-16.483 .117-15.216 .495-13.661 .495-12.188 .495-10.999 .171-10.091-.478-9.36-1.078-8.807-1.85-8.43-2.792-7.77-1.661-6.951-.831-5.973-.301-4.937 .229-3.782 .495-2.509 .495-1.661 .495-.825 .33 0 0"
        fill="#8ebc40" />
      <path transform="matrix(1,0,0,-1,318.3984,505.0137)"
        d="M0 0H18.574V-4.577H5.408V-10.568H16.948V-15.092H5.408V-26.014H0Z" fill="#8ebc40" />
      <path transform="matrix(1,0,0,-1,350.8018,511.3135)"
        d="M0 0C.064-.006 .209-.015 .433-.026V-5.187C.114-5.151-.168-5.128-.415-5.116-.663-5.104-.863-5.099-1.017-5.099-3.043-5.099-4.403-5.759-5.099-7.078-5.487-7.82-5.682-8.963-5.682-10.507V-19.714H-10.754V-.451H-5.947V-3.809C-5.17-2.524-4.492-1.646-3.915-1.176-2.973-.386-1.747 .009-.238 .009-.145 .009-.065 .006 0 0"
        fill="#8ebc40" />
      <path transform="matrix(1,0,0,-1,359.2031,516.50588)"
        d="M0 0C-.712-.733-1.159-1.728-1.342-2.981H7.336C7.244-1.645 6.797-.63 5.994 .062 5.191 .755 4.195 1.101 3.007 1.101 1.714 1.101 .712 .734 0 0M7.535 4.352C8.879 3.749 9.988 2.8 10.864 1.502 11.653 .357 12.165-.971 12.398-2.48 12.534-3.366 12.59-4.641 12.564-6.304H-1.465C-1.387-8.236-.716-9.591 .549-10.368 1.318-10.852 2.244-11.093 3.326-11.093 4.474-11.093 5.406-10.799 6.123-10.21 6.514-9.892 6.859-9.449 7.159-8.884H12.302C12.166-10.027 11.544-11.188 10.435-12.365 8.709-14.239 6.293-15.176 3.188-15.176 .624-15.176-1.638-14.386-3.598-12.806-5.558-11.226-6.537-8.654-6.537-5.094-6.537-1.757-5.652 .803-3.884 2.583-2.114 4.363 .182 5.254 3.005 5.254 4.682 5.254 6.191 4.953 7.535 4.352"
        fill="#8ebc40" />
      <path transform="matrix(1,0,0,-1,378.2207,524.8779)"
        d="M0 0C.106-.896 .338-1.531 .692-1.908 1.32-2.58 2.48-2.916 4.173-2.916 5.167-2.916 5.958-2.769 6.544-2.474 7.13-2.18 7.423-1.737 7.423-1.148 7.423-.583 7.187-.152 6.715 .142 6.242 .437 4.486 .943 1.445 1.662-.743 2.203-2.286 2.881-3.181 3.694-4.076 4.495-4.524 5.649-4.524 7.158-4.524 8.937-3.825 10.466-2.426 11.744-1.026 13.022 .942 13.661 3.481 13.661 5.89 13.661 7.853 13.182 9.37 12.222 10.887 11.261 11.758 9.603 11.982 7.246H6.945C6.874 7.895 6.691 8.406 6.396 8.784 5.841 9.467 4.896 9.809 3.561 9.809 2.462 9.809 1.68 9.638 1.213 9.296 .746 8.954 .513 8.554 .513 8.095 .513 7.518 .761 7.099 1.257 6.84 1.753 6.568 3.506 6.104 6.516 5.443 8.522 4.973 10.026 4.26 11.028 3.306 12.018 2.339 12.513 1.132 12.513-.317 12.513-2.227 11.801-3.784 10.378-4.992 8.956-6.199 6.757-6.804 3.782-6.804 .748-6.804-1.492-6.164-2.938-4.886-4.385-3.607-5.107-1.979-5.107 0Z"
        fill="#8ebc40" />
      <path transform="matrix(1,0,0,-1,408.2881,511.8711)"
        d="M0 0C.968-.412 1.763-1.044 2.385-1.893 2.912-2.612 3.235-3.353 3.353-4.112 3.47-4.873 3.528-6.114 3.528-7.836V-19.156H-1.614V-7.426C-1.614-6.389-1.79-5.551-2.141-4.914-2.597-4.018-3.462-3.569-4.736-3.569-6.059-3.569-7.062-4.015-7.745-4.905-8.43-5.796-8.771-7.066-8.771-8.718V-19.156H-13.809V6.805H-8.771V-2.385C-8.044-1.266-7.202-.485-6.246-.043-5.291 .398-4.284 .619-3.229 .619-2.044 .619-.968 .413 0 0"
        fill="#8ebc40" />
      <path transform="matrix(1,0,0,-1,181.4126,538.6299)"
        d="M0 0H9.287V-2.288H2.704V-5.284H8.474V-7.546H2.704V-13.007H0Z" fill="#8ebc40" />
      <path transform="matrix(1,0,0,-1,197.6182,546.9541)"
        d="M0 0C-.161-.1-.324-.181-.488-.242-.652-.305-.877-.362-1.164-.415L-1.738-.521C-2.275-.615-2.661-.73-2.895-.865-3.292-1.096-3.49-1.452-3.49-1.935-3.49-2.365-3.369-2.676-3.126-2.867-2.884-3.059-2.59-3.154-2.243-3.154-1.692-3.154-1.186-2.995-.722-2.677-.258-2.359-.018-1.778 0-.937ZM-1.54 1.176C-1.071 1.234-.736 1.309-.534 1.396-.172 1.55 .009 1.788 .009 2.112 .009 2.507-.13 2.779-.407 2.93-.685 3.08-1.093 3.155-1.63 3.155-2.233 3.155-2.66 3.008-2.911 2.713-3.09 2.495-3.209 2.201-3.269 1.829H-5.699C-5.646 2.672-5.409 3.364-4.989 3.906-4.321 4.755-3.173 5.179-1.546 5.179-.487 5.179 .454 4.97 1.276 4.551 2.099 4.133 2.51 3.344 2.51 2.183V-2.235C2.51-2.542 2.516-2.913 2.527-3.349 2.545-3.679 2.595-3.902 2.678-4.021 2.76-4.138 2.884-4.235 3.049-4.312V-4.683H.31C.233-4.488 .18-4.306 .15-4.135 .121-3.964 .098-3.77 .08-3.552-.27-3.929-.673-4.25-1.129-4.515-1.674-4.827-2.291-4.983-2.978-4.983-3.854-4.983-4.579-4.734-5.151-4.236-5.723-3.739-6.008-3.033-6.008-2.12-6.008-.937-5.548-.079-4.629 .451-4.124 .739-3.382 .946-2.403 1.069Z"
        fill="#8ebc40" />
      <path transform="matrix(1,0,0,-1,214.3457,542.041)"
        d="M0 0C.412-.165 .786-.453 1.122-.865 1.393-1.201 1.576-1.614 1.67-2.103 1.729-2.427 1.758-2.901 1.758-3.525L1.741-9.596H-.839V-3.464C-.839-3.099-.898-2.798-1.016-2.563-1.24-2.114-1.652-1.891-2.253-1.891-2.949-1.891-3.429-2.18-3.694-2.757-3.829-3.063-3.897-3.432-3.897-3.861V-9.596H-6.433V-3.861C-6.433-3.29-6.492-2.874-6.61-2.615-6.822-2.15-7.237-1.917-7.855-1.917-8.575-1.917-9.058-2.15-9.305-2.615-9.44-2.88-9.508-3.275-9.508-3.799V-9.596H-12.062V.018H-9.614V-1.387C-9.302-.887-9.007-.53-8.73-.317-8.242 .06-7.608 .248-6.831 .248-6.094 .248-5.5 .086-5.046-.238-4.681-.539-4.404-.925-4.215-1.396-3.885-.83-3.476-.415-2.987-.149-2.469 .115-1.891 .248-1.255 .248-.831 .248-.413 .165 0 0"
        fill="#8ebc40" />
      <path transform="matrix(1,0,0,-1,0,792)"
        d="M218.455 249.995H221.009V240.36299H218.455ZM221.008 251.144H218.454V253.468H221.008Z"
        fill="#8ebc40" />
      <path transform="matrix(1,0,0,-1,0,792)" d="M226.019 240.363H223.5V253.38701H226.019Z"
        fill="#8ebc40" />
      <path transform="matrix(1,0,0,-1,228.855,553.4834)"
        d="M0 0 .318-.018C.565-.029 .801-.021 1.025 .009 1.249 .038 1.437 .105 1.591 .212 1.738 .312 1.875 .521 2.001 .839 2.128 1.157 2.183 1.352 2.165 1.422L-1.374 11.479H1.427L3.53 4.374 5.519 11.479H8.196L4.894 2.006C4.255 .18 3.751-.953 3.379-1.393 3.008-1.831 2.265-2.051 1.15-2.051 .926-2.051 .746-2.049 .61-2.046 .475-2.043 .271-2.033 0-2.015Z"
        fill="#8ebc40" />
      <path transform="matrix(1,0,0,-1,252.0986,548.5)"
        d="M0 0C.633 .795 .95 1.927 .95 3.394 .95 4.854 .633 5.983 0 6.782-.633 7.58-1.489 7.979-2.567 7.979-3.645 7.979-4.505 7.582-5.147 6.786-5.789 5.991-6.11 4.86-6.11 3.394-6.11 1.927-5.789 .795-5.147 0-4.505-.795-3.645-1.193-2.567-1.193-1.489-1.193-.633-.795 0 0M1.701-1.979C.717-2.993-.705-3.499-2.567-3.499-4.428-3.499-5.851-2.993-6.834-1.979-8.154-.736-8.814 1.055-8.814 3.394-8.814 5.779-8.154 7.569-6.834 8.766-5.851 9.778-4.428 10.285-2.567 10.285-.705 10.285 .717 9.778 1.701 8.766 3.015 7.569 3.672 5.779 3.672 3.394 3.672 1.055 3.015-.736 1.701-1.979"
        fill="#8ebc40" />
      <path transform="matrix(1,0,0,-1,262.1816,542.0049)"
        d="M0 0H2.544L4.02-6.937 5.522 0H8.146L5.355-9.632H2.774L1.254-2.616-.274-9.632H-2.895L-5.594 0H-2.89L-1.388-6.91Z"
        fill="#8ebc40" />
      <path transform="matrix(1,0,0,-1,279.4863,542.5576)"
        d="M0 0C.631-.521 .946-1.386 .946-2.594V-9.079H-1.634V-3.221C-1.634-2.714-1.702-2.325-1.836-2.055-2.082-1.56-2.549-1.312-3.239-1.312-4.087-1.312-4.669-1.675-4.985-2.399-5.149-2.782-5.23-3.271-5.23-3.866V-9.079H-7.749V.534H-5.31V-.87C-4.988-.376-4.683-.02-4.395 .199-3.879 .588-3.225 .782-2.433 .782-1.441 .782-.63 .521 0 0"
        fill="#8ebc40" />
      <path transform="matrix(1,0,0,-1,285.2827,544.376)"
        d="M0 0C-.356-.367-.58-.863-.671-1.491H3.668C3.622-.822 3.398-.315 2.997 .031 2.595 .377 2.098 .551 1.503 .551 .857 .551 .356 .367 0 0M3.768 2.176C4.439 1.875 4.994 1.399 5.432 .751 5.826 .179 6.082-.485 6.199-1.24 6.267-1.683 6.295-2.32 6.282-3.152H-.733C-.694-4.118-.358-4.796 .274-5.185 .659-5.426 1.122-5.547 1.663-5.547 2.237-5.547 2.703-5.399 3.062-5.104 3.257-4.946 3.43-4.725 3.58-4.442H6.151C6.083-5.014 5.772-5.594 5.217-6.183 4.354-7.119 3.146-7.588 1.594-7.588 .312-7.588-.819-7.193-1.799-6.403-2.779-5.613-3.269-4.327-3.269-2.547-3.269-.878-2.827 .401-1.942 1.291-1.058 2.182 .091 2.627 1.502 2.627 2.34 2.627 3.096 2.477 3.768 2.176"
        fill="#8ebc40" />
      <path transform="matrix(1,0,0,-1,298.5645,549.0215)"
        d="M0 0C.371 .53 .557 1.217 .557 2.059 .557 3.237 .259 4.079-.336 4.586-.701 4.893-1.125 5.046-1.608 5.046-2.345 5.046-2.885 4.768-3.23 4.211-3.575 3.654-3.747 2.963-3.747 2.139-3.747 1.249-3.572 .537-3.221 .005-2.871-.528-2.339-.795-1.626-.795-.914-.795-.371-.53 0 0M-.619 6.861C-.165 6.605 .203 6.25 .486 5.797V10.392H3.04V-2.615H.592V-1.281C.232-1.853-.177-2.268-.636-2.527-1.096-2.786-1.667-2.916-2.351-2.916-3.476-2.916-4.423-2.461-5.191-1.551-5.96-.641-6.345 .527-6.345 1.953-6.345 3.597-5.966 4.89-5.209 5.832-4.452 6.774-3.44 7.246-2.174 7.246-1.591 7.246-1.072 7.118-.619 6.861"
        fill="#8ebc40" />
      <path transform="matrix(1,0,0,-1,303.7598,553.7314)"
        d="M0 0C.507 .142 .879 .377 1.118 .707 1.356 1.037 1.494 1.5 1.529 2.095H0V4.736H2.722V2.45C2.722 2.048 2.669 1.629 2.563 1.193 2.457 .757 2.259 .38 1.971 .062 1.658-.279 1.292-.537 .871-.711 .449-.885 .159-.972 0-.972Z"
        fill="#8ebc40" />
      <path transform="matrix(1,0,0,-1,309.124,538.6299)"
        d="M0 0H9.287V-2.288H2.704V-5.284H8.474V-7.546H2.704V-13.007H0Z" fill="#8ebc40" />
      <path transform="matrix(1,0,0,-1,325.3252,541.7803)"
        d="M0 0C.032-.003 .104-.007 .217-.013V-2.593C.058-2.575-.084-2.563-.208-2.558-.331-2.552-.432-2.549-.508-2.549-1.521-2.549-2.202-2.879-2.549-3.539-2.744-3.91-2.841-4.481-2.841-5.253V-9.856H-5.377V-.225H-2.974V-1.904C-2.585-1.262-2.246-.823-1.957-.587-1.486-.192-.873 .005-.119 .005-.072 .005-.032 .003 0 0"
        fill="#8ebc40" />
      <path transform="matrix(1,0,0,-1,329.5264,544.376)"
        d="M0 0C-.356-.367-.58-.863-.671-1.491H3.668C3.622-.822 3.398-.315 2.997 .031 2.595 .377 2.098 .551 1.503 .551 .856 .551 .355 .367 0 0M3.768 2.176C4.439 1.875 4.994 1.399 5.432 .751 5.826 .179 6.082-.485 6.199-1.24 6.267-1.683 6.295-2.32 6.282-3.152H-.733C-.694-4.118-.358-4.796 .274-5.185 .659-5.426 1.122-5.547 1.663-5.547 2.236-5.547 2.702-5.399 3.062-5.104 3.257-4.946 3.43-4.725 3.579-4.442H6.15C6.083-5.014 5.771-5.594 5.217-6.183 4.354-7.119 3.146-7.588 1.594-7.588 .312-7.588-.819-7.193-1.799-6.403-2.779-5.613-3.269-4.327-3.269-2.547-3.269-.878-2.827 .401-1.942 1.291-1.058 2.182 .091 2.627 1.502 2.627 2.34 2.627 3.096 2.477 3.768 2.176"
        fill="#8ebc40" />
      <path transform="matrix(1,0,0,-1,339.0342,548.5615)"
        d="M0 0C.054-.448 .169-.767 .347-.955 .66-1.29 1.24-1.458 2.087-1.458 2.584-1.458 2.979-1.385 3.272-1.237 3.565-1.09 3.712-.869 3.712-.575 3.712-.292 3.594-.077 3.357 .07 3.121 .218 2.243 .471 .723 .83-.371 1.102-1.143 1.44-1.59 1.847-2.038 2.247-2.262 2.824-2.262 3.578-2.262 4.468-1.912 5.232-1.212 5.871-.513 6.511 .472 6.83 1.741 6.83 2.945 6.83 3.927 6.59 4.686 6.11 5.443 5.63 5.879 4.801 5.991 3.622H3.473C3.438 3.946 3.346 4.203 3.198 4.392 2.921 4.732 2.448 4.904 1.78 4.904 1.231 4.904 .84 4.818 .606 4.647 .373 4.477 .257 4.276 .257 4.047 .257 3.758 .381 3.549 .629 3.419 .877 3.284 1.753 3.051 3.258 2.722 4.262 2.485 5.014 2.129 5.515 1.652 6.009 1.169 6.257 .565 6.257-.159 6.257-1.113 5.901-1.893 5.189-2.497 4.479-3.101 3.379-3.402 1.892-3.402 .374-3.402-.745-3.083-1.469-2.443-2.191-1.805-2.554-.99-2.554 0Z"
        fill="#8ebc40" />
      <path transform="matrix(1,0,0,-1,354.0684,542.0586)"
        d="M0 0C.483-.206 .881-.521 1.192-.946 1.456-1.306 1.617-1.676 1.676-2.057 1.734-2.437 1.764-3.058 1.764-3.918V-9.578H-.808V-3.713C-.808-3.194-.896-2.775-1.07-2.457-1.299-2.009-1.731-1.785-2.369-1.785-3.029-1.785-3.531-2.008-3.873-2.453-4.215-2.897-4.386-3.533-4.386-4.359V-9.578H-6.904V3.402H-4.386V-1.192C-4.022-.633-3.602-.243-3.124-.021-2.646 .199-2.143 .31-1.614 .31-1.022 .31-.484 .206 0 0"
        fill="#8ebc40" />
      <path transform="matrix(1,0,0,-1,0,792)" d="M360.771 240.363H358.25199V253.38701H360.771Z"
        fill="#8ebc40" />
      <path transform="matrix(1,0,0,-1,363.6084,553.4834)"
        d="M0 0 .318-.018C.565-.029 .801-.021 1.024 .009 1.249 .038 1.437 .105 1.591 .212 1.737 .312 1.874 .521 2.001 .839 2.128 1.157 2.183 1.352 2.165 1.422L-1.374 11.479H1.427L3.53 4.374 5.519 11.479H8.195L4.894 2.006C4.255 .18 3.751-.953 3.379-1.393 3.008-1.831 2.265-2.051 1.149-2.051 .926-2.051 .746-2.049 .61-2.046 .475-2.043 .271-2.033 0-2.015Z"
        fill="#8ebc40" />
      <path transform="matrix(1,0,0,-1,387.2803,542.6768)"
        d="M0 0C-.206 .89-.71 1.511-1.511 1.864-1.958 2.059-2.456 2.156-3.004 2.156-4.053 2.156-4.914 1.761-5.589 .97-6.264 .179-6.601-1.01-6.601-2.598-6.601-4.197-6.235-5.329-5.505-5.993-4.774-6.657-3.943-6.989-3.013-6.989-2.1-6.989-1.352-6.728-.769-6.204-.186-5.68 .174-4.993 .31-4.145H-2.703V-1.971H2.722V-8.96H.919L.646-7.334C.121-7.95-.351-8.384-.769-8.637-1.487-9.076-2.371-9.296-3.419-9.296-5.146-9.296-6.56-8.698-7.661-7.503-8.81-6.303-9.384-4.66-9.384-2.576-9.384-.469-8.804 1.222-7.644 2.493-6.482 3.765-4.948 4.4-3.039 4.4-1.384 4.4-.055 3.98 .95 3.142 1.954 2.302 2.53 1.255 2.678 0Z"
        fill="#8ebc40" />
      <path transform="matrix(1,0,0,-1,397.7471,541.7803)"
        d="M0 0C.032-.003 .104-.007 .217-.013V-2.593C.058-2.575-.084-2.563-.208-2.558-.331-2.552-.432-2.549-.508-2.549-1.521-2.549-2.202-2.879-2.549-3.539-2.744-3.91-2.841-4.481-2.841-5.253V-9.856H-5.377V-.225H-2.974V-1.904C-2.585-1.262-2.246-.823-1.957-.587-1.486-.192-.873 .005-.119 .005-.072 .005-.032 .003 0 0"
        fill="#8ebc40" />
      <path transform="matrix(1,0,0,-1,405.457,549.0664)"
        d="M0 0C.395 .523 .592 1.268 .592 2.232 .592 3.196 .395 3.939 0 4.46-.396 4.98-.961 5.241-1.697 5.241-2.434 5.241-3 4.98-3.397 4.46-3.796 3.939-3.994 3.196-3.994 2.232-3.994 1.268-3.796 .523-3.397 0-3-.524-2.434-.785-1.697-.785-.961-.785-.396-.524 0 0M2.015-1.393C1.201-2.396-.033-2.897-1.688-2.897-3.344-2.897-4.577-2.396-5.391-1.393-6.203-.389-6.61 .819-6.61 2.232-6.61 3.621-6.203 4.824-5.391 5.843-4.577 6.861-3.344 7.37-1.688 7.37-.033 7.37 1.201 6.861 2.015 5.843 2.827 4.824 3.233 3.621 3.233 2.232 3.233 .819 2.827-.389 2.015-1.393"
        fill="#8ebc40" />
      <path transform="matrix(1,0,0,-1,415.0322,542.0049)"
        d="M0 0H2.543L4.02-6.937 5.521 0H8.146L5.354-9.632H2.774L1.254-2.616-.275-9.632H-2.896L-5.595 0H-2.891L-1.389-6.91Z"
        fill="#8ebc40" />
      <path transform="matrix(1,0,0,-1,432.3369,542.5576)"
        d="M0 0C.63-.521 .945-1.386 .945-2.594V-9.079H-1.635V-3.221C-1.635-2.714-1.702-2.325-1.836-2.055-2.082-1.56-2.55-1.312-3.24-1.312-4.088-1.312-4.67-1.675-4.985-2.399-5.149-2.782-5.231-3.271-5.231-3.866V-9.079H-7.749V.534H-5.311V-.87C-4.988-.376-4.683-.02-4.396 .199-3.88 .588-3.226 .782-2.434 .782-1.442 .782-.631 .521 0 0"
        fill="#8ebc40" />
      <path transform="matrix(1,0,0,-1,0,792)"
        d="M436.499 242.917H439.142V240.363H436.499ZM436.437 253.344H439.203V250.042L438.487 243.969H437.171L436.437 250.042Z"
        fill="#8ebc40" />
      <path transform="matrix(1,0,0,-1,309.5176,199.41663)"
        d="M0 0C-111.698 0-202.571-90.873-202.571-202.571-202.571-314.271-111.698-405.144 0-405.144 111.698-405.144 202.571-314.271 202.571-202.571 202.571-90.873 111.698 0 0 0M0-414.193C-116.687-414.193-211.62-319.26-211.62-202.571-211.62-85.884-116.687 9.048 0 9.048 116.688 9.048 211.62-85.884 211.62-202.571 211.62-319.26 116.688-414.193 0-414.193"
        fill="#753718" />
      <path transform="matrix(1,0,0,-1,489.3584,201.62012)"
        d="M0 0H-4.436V3.137H8.259V0H3.75V-13.38H0Z" fill="#753718" />
      <path transform="matrix(1,0,0,-1,515.9229,208.67768)"
        d="M0 0C-.074 1.985-.147 4.387-.147 6.788H-.221C-.735 4.681-1.422 2.328-2.059 .392L-4.068-6.053H-6.984L-8.749 .319C-9.288 2.279-9.852 4.632-10.244 6.788H-10.293C-10.391 4.558-10.464 2.01-10.587-.049L-10.881-6.322H-14.336L-13.282 10.194H-8.308L-6.69 4.681C-6.176 2.794-5.661 .711-5.294-1.225H-5.22C-4.755 .687-4.19 2.867-3.651 4.705L-1.888 10.194H2.989L3.896-6.322H.245Z"
        fill="#753718" />
    </g>
  </g>
</svg>